<svg width="16" height="17" viewBox="0 0 16 17" fill="none" xmlns="http://www.w3.org/2000/svg">
<g id="ep:arrow-up">
<path id="Vector" d="M7.63801 12.0604L2.32801 6.48741C2.23936 6.39443 2.18991 6.27088 2.18991 6.14241C2.18991 6.01394 2.23936 5.8904 2.32801 5.79742L2.33401 5.79141C2.37698 5.74618 2.42871 5.71016 2.48604 5.68555C2.54337 5.66093 2.60511 5.64824 2.66751 5.64824C2.7299 5.64824 2.79164 5.66093 2.84897 5.68555C2.90631 5.71016 2.95803 5.74618 3.00101 5.79141L8.00101 11.0394L12.999 5.79141C13.042 5.74618 13.0937 5.71016 13.151 5.68555C13.2084 5.66093 13.2701 5.64824 13.3325 5.64824C13.3949 5.64824 13.4566 5.66093 13.514 5.68555C13.5713 5.71016 13.623 5.74618 13.666 5.79141L13.672 5.79742C13.7607 5.8904 13.8101 6.01394 13.8101 6.14241C13.8101 6.27088 13.7607 6.39443 13.672 6.48741L8.36201 12.0604C8.31531 12.1094 8.25915 12.1484 8.19692 12.1751C8.13469 12.2018 8.0677 12.2155 8.00001 12.2155C7.93231 12.2155 7.86532 12.2018 7.80309 12.1751C7.74087 12.1484 7.6847 12.1094 7.63801 12.0604Z" fill="white"/>
</g>
</svg>
