<svg width="22" height="22" viewBox="0 0 22 22" fill="none" xmlns="http://www.w3.org/2000/svg">
<path d="M10.75 1C5.366 1 1 5.366 1 10.75C1 16.134 5.366 20.5 10.75 20.5V18.062C9.30387 18.0618 7.89026 17.6328 6.68794 16.8292C5.48562 16.0256 4.54858 14.8836 3.99531 13.5475C3.44203 12.2114 3.29737 10.7412 3.57962 9.32289C3.86187 7.90456 4.55835 6.60178 5.58099 5.57928C6.60363 4.55678 7.90651 3.86048 9.32487 3.57842C10.7432 3.29637 12.2134 3.44123 13.5494 3.99469C14.8854 4.54815 16.0274 5.48534 16.8308 6.68777C17.6342 7.8902 18.063 9.30387 18.063 10.75H20.5C20.5 5.366 16.134 1 10.75 1Z" fill="#D0B34E" fill-opacity="0.9"/>
</svg>
