<svg width="40" height="40" viewBox="0 0 40 40" fill="none" xmlns="http://www.w3.org/2000/svg">
<g clip-path="url(#clip0_320_2665)">
<path d="M20 40C31.0457 40 40 31.0457 40 20C40 8.9543 31.0457 0 20 0C8.9543 0 0 8.9543 0 20C0 31.0457 8.9543 40 20 40Z" fill="#3E73C4"/>
<path d="M25.0276 22.6543C25.0276 19.9993 23.4276 19.0893 20.2276 18.7093C17.9426 18.4056 17.4863 17.7993 17.4863 16.7368C17.4863 15.6743 18.2488 14.9918 19.7713 14.9918C21.1426 14.9918 21.9051 15.4468 22.2851 16.5856C22.3247 16.6957 22.3971 16.791 22.4925 16.8588C22.5879 16.9265 22.7018 16.9633 22.8188 16.9643H24.0376C24.108 16.9662 24.178 16.9538 24.2434 16.9278C24.3089 16.9018 24.3684 16.8628 24.4183 16.8131C24.4682 16.7634 24.5075 16.7041 24.5338 16.6388C24.5601 16.5735 24.5729 16.5035 24.5713 16.4331V16.3581C24.4224 15.5342 24.0055 14.7826 23.3855 14.22C22.7655 13.6574 21.977 13.3153 21.1426 13.2468V11.4268C21.1426 11.1231 20.9138 10.8956 20.5338 10.8193H19.3901C19.0863 10.8193 18.8576 11.0468 18.7813 11.4268V13.1718C16.4951 13.4743 15.0488 14.9918 15.0488 16.8893C15.0488 19.3918 16.5713 20.3781 19.7713 20.7581C21.9051 21.1368 22.5901 21.5931 22.5901 22.8068C22.5901 24.0193 21.5238 24.8543 20.0763 24.8543C18.0951 24.8543 17.4101 24.0206 17.1813 22.8818C17.1063 22.5793 16.8763 22.4268 16.6476 22.4268H15.3526C15.2823 22.4251 15.2124 22.4377 15.1471 22.4638C15.0818 22.4898 15.0225 22.5289 14.9727 22.5786C14.9229 22.6282 14.8837 22.6875 14.8575 22.7527C14.8313 22.8179 14.8185 22.8878 14.8201 22.9581V23.0331C15.1238 24.9306 16.3438 26.2956 18.8576 26.6756V28.4968C18.8576 28.7993 19.0863 29.0281 19.4663 29.1031H20.6101C20.9138 29.1031 21.1426 28.8756 21.2188 28.4968V26.6743C23.5051 26.2956 25.0276 24.7018 25.0276 22.6531V22.6543Z" fill="white"/>
<path d="M16.115 30.6212C10.1725 28.4962 7.12499 21.8962 9.33499 16.055C10.4775 12.8675 12.9912 10.4412 16.115 9.3025C16.42 9.15125 16.5712 8.92375 16.5712 8.54375V7.48125C16.5712 7.17875 16.42 6.95125 16.115 6.875C16.0387 6.875 15.8862 6.875 15.81 6.95C14.0955 7.48541 12.5039 8.35466 11.1268 9.50772C9.74963 10.6608 8.61418 12.0749 7.7858 13.6685C6.95741 15.2622 6.45246 17.004 6.3 18.7937C6.14755 20.5833 6.35061 22.3854 6.89749 24.0963C8.26749 28.3463 11.5437 31.6087 15.81 32.9737C16.115 33.125 16.42 32.9737 16.495 32.67C16.5712 32.595 16.5712 32.5175 16.5712 32.3662V31.3037C16.5712 31.0762 16.3437 30.7737 16.115 30.6212ZM24.19 6.95125C23.885 6.79875 23.58 6.95125 23.505 7.25375C23.4287 7.33 23.4287 7.40625 23.4287 7.5575V8.62C23.4287 8.92375 23.6562 9.22625 23.885 9.37875C29.8275 11.5037 32.875 18.1038 30.665 23.945C29.5225 27.1325 27.0087 29.5588 23.885 30.6975C23.58 30.8488 23.4287 31.0763 23.4287 31.4563V32.5187C23.4287 32.8212 23.58 33.0487 23.885 33.125C23.9612 33.125 24.1137 33.125 24.19 33.05C25.9045 32.5146 27.4961 31.6453 28.8732 30.4923C30.2504 29.3392 31.3858 27.9251 32.2142 26.3315C33.0426 24.7378 33.5475 22.996 33.7 21.2063C33.8524 19.4167 33.6494 17.6146 33.1025 15.9037C31.7325 11.5787 28.38 8.31625 24.19 6.95125Z" fill="white"/>
</g>
<defs>
<clipPath id="clip0_320_2665">
<rect width="40" height="40" fill="white"/>
</clipPath>
</defs>
</svg>
